<?xml version="1.0" standalone="no"?>
<!DOCTYPE svg PUBLIC "-//W3C//DTD SVG 20010904//EN"
 "http://www.w3.org/TR/2001/REC-SVG-20010904/DTD/svg10.dtd">
<svg version="1.0" xmlns="http://www.w3.org/2000/svg"
 width="720.000000pt" height="720.000000pt" viewBox="0 0 720.000000 720.000000"
 preserveAspectRatio="xMidYMid meet">
<metadata>
Created by potrace 1.14, written by Peter Selinger 2001-2017
</metadata>
<g transform="translate(0.000000,720.000000) scale(0.100000,-0.100000)"
fill="#000000" stroke="none">
<path d="M4880 7190 c0 -5 5 -10 10 -10 6 0 10 5 10 10 0 6 -4 10 -10 10 -5 0
-10 -4 -10 -10z"/>
<path d="M5026 7181 c32 -31 64 -71 64 -80 0 -6 18 -22 40 -38 22 -15 40 -36
40 -45 0 -24 11 -48 22 -48 15 0 58 -52 74 -92 9 -21 22 -38 29 -38 17 0 103
-139 88 -141 -5 0 1 -4 12 -9 18 -8 17 -9 -7 -9 -16 -1 -28 3 -28 8 0 8 -148
28 -180 23 -8 -1 -45 5 -82 14 -61 14 -73 22 -70 45 1 4 -14 10 -32 13 -22 4
-36 13 -39 26 -3 11 -12 20 -21 20 -13 0 -15 -4 -6 -19 9 -18 6 -20 -42 -24
-46 -3 -43 -4 20 -5 39 -1 72 -6 72 -10 0 -4 -70 -8 -155 -9 -125 0 -155 2
-155 13 0 8 -7 14 -15 14 -10 0 -15 10 -15 30 0 25 -4 30 -25 30 -14 0 -36 7
-50 16 -19 12 -28 13 -46 4 -34 -19 -106 -97 -156 -172 -14 -21 -29 -38 -34
-38 -4 0 -10 -8 -13 -17 -3 -10 -21 -34 -38 -54 -60 -65 -104 -124 -119 -157
-8 -18 -19 -30 -24 -28 -10 3 -93 -97 -121 -145 -6 -10 -14 -16 -18 -12 -4 4
-10 3 -14 -3 -4 -6 -38 -20 -77 -33 -38 -12 -74 -26 -80 -30 -5 -5 -32 -12
-60 -16 -27 -3 -59 -12 -70 -19 -11 -6 -36 -13 -55 -15 -19 -2 -43 -12 -55
-25 -11 -12 -40 -31 -65 -43 -37 -18 -48 -29 -64 -70 -32 -82 -85 -123 -135
-105 -43 17 -90 22 -96 12 -4 -6 -11 -8 -16 -5 -5 4 -9 -4 -9 -16 0 -19 -4
-21 -32 -15 -18 4 -63 10 -100 13 -38 3 -68 9 -68 14 0 5 -13 8 -28 7 -16 -1
-44 5 -63 14 -19 9 -56 19 -82 23 -31 5 -53 14 -60 26 -7 11 -18 19 -25 19
-17 0 -120 49 -127 60 -3 5 -19 11 -35 15 -17 4 -30 11 -30 16 0 5 -4 9 -9 9
-6 0 -29 13 -53 29 -24 15 -61 36 -83 45 -22 10 -48 22 -57 27 -31 16 -102 39
-123 39 -11 0 -40 7 -64 16 -47 16 -165 11 -177 -7 -3 -5 -19 -9 -35 -9 -18 0
-28 -4 -24 -10 3 -5 1 -10 -4 -10 -16 0 -14 -89 3 -152 14 -53 68 -198 86
-230 6 -10 10 -27 10 -37 0 -11 5 -23 10 -26 6 -3 10 -18 10 -32 0 -13 7 -37
15 -51 8 -15 24 -47 34 -72 11 -25 27 -56 35 -70 8 -14 30 -56 48 -95 28 -61
32 -79 31 -148 -1 -94 -9 -142 -27 -160 -8 -8 -36 -58 -63 -113 -27 -54 -61
-118 -76 -141 -15 -24 -27 -45 -27 -48 0 -3 -16 -19 -35 -36 -19 -17 -35 -37
-35 -44 0 -7 -13 -28 -30 -46 -17 -19 -30 -46 -30 -60 0 -35 -34 -110 -60
-134 -11 -10 -20 -24 -20 -30 0 -7 -7 -15 -15 -19 -9 -3 -15 -18 -15 -36 0
-17 -12 -48 -26 -69 -25 -38 -25 -40 -8 -66 18 -27 17 -28 -4 -45 -12 -10 -22
-27 -22 -38 0 -11 -9 -39 -20 -63 -11 -24 -20 -59 -20 -78 0 -35 -37 -121 -52
-121 -4 0 -8 -5 -8 -11 0 -15 -39 -49 -57 -49 -7 0 -13 -9 -13 -20 0 -11 -4
-20 -10 -20 -15 0 -41 -46 -45 -82 -3 -18 -13 -39 -23 -48 -10 -8 -23 -27 -30
-42 -6 -16 -16 -28 -20 -28 -5 0 -27 -26 -50 -57 -22 -32 -52 -69 -66 -82 -14
-14 -26 -30 -26 -38 0 -7 -11 -20 -25 -29 -14 -9 -25 -23 -25 -30 0 -8 -9 -23
-21 -35 -11 -11 -25 -34 -31 -50 -5 -16 -14 -29 -19 -29 -6 0 -21 -11 -35 -24
-29 -26 -55 -30 -334 -47 -85 -5 -180 -14 -210 -19 -30 -6 -86 -14 -125 -19
-70 -9 -107 -16 -240 -46 -38 -8 -83 -18 -100 -21 -16 -3 -47 -10 -67 -16
l-38 -11 0 -1544 0 -1543 1799 0 c1590 0 1800 2 1805 15 3 8 12 15 19 15 8 0
22 9 32 20 10 11 25 20 33 20 10 0 12 5 6 18 -4 9 -9 39 -12 65 -3 38 0 53 15
70 10 12 25 33 32 47 20 41 34 56 67 73 30 15 34 15 75 -5 24 -11 46 -24 49
-28 8 -12 75 -31 100 -28 18 2 28 -4 38 -25 10 -20 19 -26 32 -22 12 4 19 -1
23 -16 3 -11 10 -18 15 -15 6 3 12 -28 16 -77 3 -45 7 -92 9 -104 l2 -23 1318
0 c724 0 1317 3 1317 8 0 4 -12 45 -26 92 -14 47 -32 114 -40 150 -14 58 -23
93 -57 210 -17 58 -39 123 -52 155 -14 33 -59 149 -68 178 -4 9 -11 17 -17 17
-5 0 -10 11 -10 25 0 14 -4 25 -10 25 -5 0 -10 6 -10 14 0 23 -64 125 -82 131
-29 10 -38 -3 -38 -55 0 -27 -4 -52 -10 -55 -5 -3 -10 -19 -10 -34 0 -30 -18
-50 -66 -73 -31 -15 -33 -14 -44 8 -14 25 -86 46 -151 44 -19 -1 -52 4 -74 10
-22 6 -47 13 -55 14 -8 1 -37 13 -65 25 -34 16 -82 26 -149 32 -63 6 -106 15
-116 24 -9 8 -22 15 -28 15 -7 0 -12 4 -12 9 0 5 -24 11 -52 14 -29 3 -68 9
-85 12 l-33 7 0 -61 c0 -33 3 -61 8 -61 4 0 7 -12 6 -27 -1 -28 -5 -44 -30
-100 -8 -17 -14 -47 -14 -66 0 -25 -9 -44 -30 -67 -16 -18 -30 -36 -30 -40 0
-4 -10 -10 -21 -13 -17 -5 -24 1 -32 24 -12 31 -27 39 -27 14 0 -9 -7 -18 -15
-21 -8 -4 -15 -12 -15 -19 0 -17 -23 -25 -71 -25 -21 0 -39 -4 -39 -10 0 -5 9
-10 21 -10 17 0 20 -5 17 -32 -2 -17 -9 -34 -17 -36 -10 -3 -12 0 -8 12 4 9 2
16 -3 16 -6 0 -10 -9 -10 -20 0 -11 -5 -20 -10 -20 -6 0 -10 6 -8 14 2 8 -1
14 -7 13 -5 -1 -9 -6 -7 -10 1 -4 -3 -17 -9 -28 -9 -18 -17 -20 -54 -15 -26 4
-46 3 -49 -3 -4 -6 -15 -2 -26 9 -11 11 -27 20 -35 20 -8 0 -28 20 -45 45 -17
25 -37 45 -45 45 -8 0 -15 7 -15 15 0 9 -6 12 -16 8 -9 -3 -19 -1 -23 5 -7 12
-51 5 -51 -9 0 -4 9 -13 20 -19 28 -15 25 -48 -4 -60 -37 -14 -185 -15 -199
-1 -6 6 -32 11 -57 11 -46 0 -46 0 -65 50 -12 31 -24 49 -32 46 -7 -3 -15 -1
-18 4 -4 6 -21 10 -39 10 -34 0 -46 -14 -62 -70 -7 -23 -7 -24 -15 -5 -6 17
-8 17 -8 3 -1 -10 -5 -18 -11 -18 -5 0 -7 7 -4 15 4 10 0 15 -15 15 -12 0 -24
-7 -28 -16 -3 -8 -11 -13 -18 -10 -8 3 -16 -2 -19 -10 -3 -8 -14 -14 -25 -14
-13 0 -23 -9 -27 -24 -5 -21 -9 -23 -36 -15 -16 4 -37 14 -45 21 -13 11 -13
13 4 19 15 6 15 8 2 8 -20 1 -33 56 -19 79 9 16 9 15 10 0 0 -32 18 -19 32 25
17 55 13 141 -8 133 -11 -4 -14 6 -14 49 0 56 7 63 53 56 4 0 7 8 7 18 0 11 4
22 9 25 5 3 8 20 7 36 -1 17 3 35 10 41 15 12 28 81 25 126 -2 22 6 43 24 67
14 18 28 44 30 56 5 28 21 47 106 130 37 36 70 75 73 86 4 12 15 24 26 27 11
3 24 17 30 31 8 22 14 25 35 20 23 -6 25 -4 25 30 0 41 -4 40 149 38 81 -1 86
-3 112 -32 17 -19 34 -28 43 -24 42 16 -7 73 -62 74 -20 0 -31 4 -27 10 3 6
-3 10 -14 10 -20 0 -27 15 -30 64 -1 38 -11 48 -11 12 l0 -28 -87 7 c-94 8
-105 11 -84 24 11 7 11 9 0 13 -11 4 -11 10 0 36 7 18 16 32 20 32 4 0 12 26
19 57 20 98 -21 100 -70 4 -27 -53 -78 -93 -105 -84 -8 3 -13 -4 -13 -16 0
-31 -42 -38 -83 -12 -19 12 -43 21 -54 21 -11 0 -33 11 -49 25 -16 14 -39 25
-50 25 -12 0 -29 11 -38 25 -9 14 -23 25 -31 25 -8 0 -15 4 -15 9 0 12 -97 57
-142 65 -20 4 -56 17 -80 30 -34 19 -164 55 -256 72 -7 1 -31 12 -53 23 -22
12 -44 21 -50 21 -6 0 -43 16 -83 35 -40 19 -82 35 -93 35 -11 0 -26 7 -33 15
-7 9 -29 15 -51 15 -22 0 -47 4 -57 9 -47 24 -238 54 -367 56 -110 3 -183 16
-195 36 -5 7 -32 16 -62 21 -29 4 -87 13 -128 20 -41 6 -93 11 -115 10 -22 0
-91 -4 -154 -6 -136 -7 -171 5 -202 66 -13 25 -25 38 -34 34 -23 -9 -47 43
-49 105 -1 37 -6 60 -13 63 -7 3 -13 16 -13 28 0 13 -5 30 -11 38 -8 12 -9 10
-4 -7 7 -27 -12 -32 -22 -6 -4 11 1 22 15 31 28 19 28 37 -3 73 -21 26 -23 33
-12 57 6 15 17 31 24 35 17 11 16 39 -1 63 -11 14 -13 38 -9 100 4 62 2 88 -9
110 -9 16 -22 56 -29 89 -11 45 -20 62 -36 70 -25 11 -32 41 -8 31 8 -3 15 -1
15 4 0 6 -4 10 -10 10 -13 0 -13 37 0 45 6 3 10 1 10 -4 0 -6 5 -11 10 -11 6
0 10 9 10 20 0 12 7 20 16 20 9 0 23 8 30 18 13 16 13 16 14 -3 1 -18 2 -18
10 3 12 27 40 29 47 2 3 -11 13 -20 22 -20 10 0 17 -9 19 -24 3 -41 22 -78 42
-83 11 -3 20 -12 20 -21 0 -12 10 -14 55 -9 40 4 59 2 69 -9 8 -8 19 -14 25
-14 6 0 11 -4 11 -10 0 -5 18 -10 41 -10 31 0 40 3 36 14 -4 10 0 12 14 9 15
-4 19 -14 19 -44 0 -22 5 -39 10 -39 6 0 10 18 10 40 0 29 4 40 15 40 11 0 15
-11 15 -40 l0 -40 58 -1 c31 -1 49 -3 40 -6 -10 -2 -18 -11 -18 -20 0 -13 8
-14 40 -9 31 5 40 3 40 -8 0 -8 -8 -20 -17 -25 -14 -8 -9 -10 25 -11 l42 0 1
43 c2 76 -8 100 -36 77 -13 -11 -15 -6 -15 40 l0 53 -50 -5 c-72 -7 -82 4 -86
90 -2 71 5 88 25 55 9 -15 10 -13 11 14 0 17 -4 33 -9 35 -5 2 -11 40 -13 85
-2 46 -6 83 -10 83 -5 0 -8 -7 -8 -15 0 -8 -4 -15 -10 -15 -5 0 -10 16 -10 35
0 19 -4 35 -8 35 -5 0 -9 6 -9 14 0 33 80 -6 130 -62 7 -7 19 -21 27 -30 8
-10 26 -32 38 -50 13 -17 32 -32 43 -32 10 0 19 -5 19 -10 0 -7 39 -8 111 -5
105 6 111 5 116 -14 5 -19 7 -20 40 -6 20 8 52 15 72 15 56 0 80 10 83 34 3
20 8 21 81 19 67 -2 85 2 122 23 24 13 49 24 55 24 6 0 19 7 28 16 11 11 17
13 20 5 2 -6 8 -9 12 -6 5 3 7 12 4 20 -6 14 35 38 54 33 11 -3 56 23 69 41 7
9 13 24 13 34 0 10 6 17 13 15 6 -2 22 7 35 20 17 17 34 22 70 22 26 0 52 -4
58 -10 5 -5 26 -10 48 -12 34 -2 40 -7 59 -45 12 -24 25 -43 29 -43 4 0 8 -6
8 -14 0 -17 35 -31 51 -21 7 5 9 -9 4 -46 -6 -48 -3 -58 19 -88 14 -19 26 -45
26 -57 0 -27 29 -64 52 -68 10 -1 31 -21 48 -44 16 -23 34 -42 39 -42 5 0 11
-18 15 -40 3 -21 20 -59 36 -84 17 -24 30 -49 30 -55 0 -6 6 -11 13 -11 8 0
22 -9 32 -20 34 -38 119 -70 184 -70 33 0 63 5 66 10 4 6 12 9 19 8 6 -2 36
15 66 37 30 22 67 45 81 51 15 7 39 29 55 50 23 30 29 46 27 83 -1 25 -4 105
-7 176 -3 72 -8 142 -10 158 -7 34 10 79 27 75 16 -4 77 55 77 74 0 8 31 47
69 88 38 41 67 79 63 85 -4 5 -7 21 -7 34 0 21 -7 26 -57 36 -36 7 -59 8 -61
2 -2 -6 -18 -5 -41 3 -28 9 -41 9 -49 1 -16 -16 -62 -14 -77 4 -14 17 -56 20
-65 5 -9 -14 -27 -1 -21 15 6 17 -20 28 -61 26 -23 -2 -32 2 -35 16 -6 25 8
60 37 95 14 16 25 40 25 52 0 24 22 48 53 59 9 4 22 18 27 32 5 14 22 30 37
36 15 6 34 16 43 24 62 57 78 79 84 113 3 20 17 49 31 64 14 15 25 31 25 35 0
4 21 28 46 54 43 43 46 50 46 98 -1 28 3 51 9 51 5 0 9 22 9 49 0 29 6 53 14
60 18 15 21 141 4 152 -23 14 -35 86 -37 215 -2 137 7 192 30 185 8 -2 30 -7
49 -10 28 -5 35 -12 41 -37 10 -50 17 -56 45 -37 32 21 39 11 49 -64 4 -35 11
-53 20 -53 9 0 12 -6 9 -15 -4 -8 -1 -15 5 -15 6 0 11 -15 11 -32 0 -44 22
-114 43 -138 9 -11 17 -26 17 -33 1 -33 74 -85 137 -96 26 -5 51 -7 56 -4 17
10 166 13 172 3 3 -5 13 -10 22 -10 9 0 45 -14 80 -31 46 -22 73 -30 93 -26
16 4 30 2 32 -4 2 -6 5 11 6 37 1 37 -3 53 -19 70 -16 18 -23 43 -30 109 -8
74 -13 90 -33 106 -14 11 -26 34 -30 57 -3 22 -13 45 -21 52 -9 7 -14 19 -11
27 3 8 -2 13 -14 13 -11 0 -24 9 -30 20 -12 23 -4 25 36 10 27 -11 249 -50
384 -69 36 -5 83 -14 105 -20 22 -6 79 -11 127 -11 48 0 89 -4 93 -9 3 -6 13
-10 23 -10 30 0 165 -19 217 -31 27 -6 88 -15 135 -20 47 -5 108 -14 135 -20
28 -6 84 -15 125 -20 41 -6 89 -12 105 -15 17 -3 66 -10 110 -16 44 -5 92 -12
108 -15 l27 -6 0 1076 0 1076 -1097 0 c-1069 0 -1096 0 -1077 -19z m-2131
-1931 c8 -16 15 -36 15 -45 0 -8 5 -15 10 -15 6 0 10 -13 10 -30 0 -16 4 -30
10 -30 5 0 7 -6 4 -13 -3 -8 2 -20 11 -27 8 -7 15 -25 15 -41 0 -16 5 -29 10
-29 6 0 10 -8 10 -19 0 -10 7 -24 15 -31 8 -7 15 -21 15 -31 0 -10 5 -21 10
-24 6 -3 10 -17 10 -31 0 -22 8 -43 32 -84 5 -8 11 -23 14 -32 4 -10 10 -18
15 -18 5 0 7 -12 3 -27 -4 -19 -3 -24 4 -15 10 15 32 -56 32 -106 0 -16 6 -47
13 -68 8 -22 12 -58 9 -80 -4 -42 18 -84 44 -84 6 0 19 -9 29 -20 41 -45 -12
-197 -100 -284 -173 -173 -465 -144 -596 59 -51 79 -56 91 -63 143 -7 56 3 87
32 96 23 8 39 53 47 136 7 67 26 141 52 198 8 18 11 37 8 43 -4 5 -2 15 3 22
25 30 52 90 52 113 0 19 4 25 15 20 15 -5 20 13 17 57 -1 10 3 15 8 12 6 -4
10 8 11 27 1 21 3 26 6 13 4 -14 11 -2 24 40 10 33 17 65 14 72 -2 6 -1 13 3
15 4 2 20 36 36 76 24 61 31 72 52 72 16 0 28 -9 39 -30z m2358 -6 c21 -8 23
-34 2 -34 -8 0 -15 -4 -15 -10 0 -16 -36 -12 -50 5 -10 13 -9 19 5 35 10 11
23 18 29 15 6 -3 19 -8 29 -11z m184 -130 c-3 -3 -12 -4 -19 -1 -8 3 -5 6 6 6
11 1 17 -2 13 -5z m18 -78 c-3 -22 -6 -49 -6 -59 0 -9 -4 -15 -8 -12 -5 2 -14
-2 -21 -10 -7 -8 -27 -15 -44 -15 -17 0 -38 -5 -46 -10 -12 -8 -11 -10 8 -10
12 0 22 -5 22 -11 0 -6 -7 -8 -16 -5 -9 3 -27 6 -40 6 -14 0 -24 6 -24 14 0
16 21 26 56 26 14 0 23 4 19 9 -3 5 10 15 28 22 36 13 63 56 54 89 -3 13 -1
17 9 13 10 -4 12 -17 9 -47z m-301 29 c3 -10 -1 -15 -14 -15 -20 0 -33 13 -23
24 11 11 31 6 37 -9z m-858 -89 c2 -14 0 -15 -12 -5 -17 14 -19 32 -2 27 6 -2
12 -12 14 -22z m-68 -144 c2 -7 -3 -12 -12 -12 -9 0 -16 7 -16 16 0 17 22 14
28 -4z m-317 -1352 c5 0 9 -7 9 -15 0 -9 7 -18 15 -21 8 -4 15 -13 15 -21 0
-10 -6 -13 -16 -9 -9 3 -18 6 -20 6 -2 0 -4 7 -4 15 0 8 -9 20 -20 27 -24 15
-27 33 -4 24 9 -3 20 -6 25 -6z m79 -95 c0 -8 -4 -15 -9 -15 -13 0 -22 16 -14
24 11 11 23 6 23 -9z m1145 -2955 c-3 -5 -12 -10 -18 -10 -7 0 -6 4 3 10 19
12 23 12 15 0z m1458 -335 c4 -8 2 -17 -3 -20 -6 -4 -10 3 -10 14 0 25 6 27
13 6z"/>
<path d="M4880 7054 c0 -3 7 -12 15 -21 20 -19 32 -9 15 12 -12 15 -30 20 -30
9z"/>
<path d="M3058 5923 c6 -2 10 -9 6 -14 -3 -5 4 -9 15 -9 14 0 19 5 15 15 -4 8
-16 15 -28 14 -11 0 -15 -3 -8 -6z"/>
<path d="M4923 4464 c0 -26 85 -80 146 -94 80 -17 81 -18 88 -37 4 -9 15 -25
26 -36 11 -11 17 -27 14 -38 -3 -10 -1 -19 4 -19 12 0 12 -27 -1 -35 -6 -3 -7
1 -4 9 3 9 2 16 -3 16 -13 0 -38 -48 -30 -56 3 -4 -1 -14 -10 -22 -14 -15 -13
-17 12 -24 16 -4 32 -5 37 -2 4 3 11 -2 14 -10 15 -40 21 -6 18 112 -3 144 -3
146 -14 112 l-8 -25 -1 28 c-1 19 -13 40 -36 61 -31 30 -43 34 -111 40 -42 3
-82 10 -89 16 -6 5 -15 7 -18 3 -4 -3 -13 -1 -20 5 -11 9 -14 8 -14 -4z"/>
<path d="M2400 3490 c0 -19 3 -21 12 -12 9 9 9 15 0 24 -9 9 -12 7 -12 -12z"/>
<path d="M2930 3500 c0 -5 5 -10 11 -10 5 0 7 5 4 10 -3 6 -8 10 -11 10 -2 0
-4 -4 -4 -10z"/>
<path d="M2360 3432 c0 -7 -9 -21 -20 -32 -21 -21 -19 -40 4 -40 12 0 29 68
20 79 -2 2 -4 -1 -4 -7z"/>
<path d="M2560 3314 c0 -8 5 -12 10 -9 6 4 8 11 5 16 -9 14 -15 11 -15 -7z"/>
<path d="M6360 2316 c0 -8 -3 -16 -7 -18 -13 -5 -63 -76 -63 -88 0 -6 -7 -13
-15 -16 -8 -4 -15 -14 -15 -24 0 -9 -9 -25 -20 -35 -20 -18 -26 -35 -12 -35
10 1 72 86 72 100 0 5 5 10 10 10 6 0 10 4 10 9 0 6 14 30 30 54 32 48 35 57
20 57 -5 0 -10 -6 -10 -14z"/>
<path d="M6134 1974 c-28 -31 -48 -73 -39 -83 7 -6 44 38 45 53 0 5 7 18 17
28 9 10 13 21 10 24 -3 4 -18 -7 -33 -22z"/>
<path d="M5666 1902 c-12 -11 -5 -40 14 -62 23 -27 22 -22 10 -54 -6 -17 -6
-26 0 -26 6 0 10 -8 10 -17 0 -17 55 -83 83 -100 15 -9 67 -116 67 -137 0 -31
102 -86 161 -86 15 0 30 -4 33 -9 3 -5 20 -11 38 -14 18 -3 43 -8 55 -12 19
-6 22 -4 18 13 -4 24 -34 72 -44 72 -4 0 -14 13 -24 28 -22 39 -360 381 -391
397 -13 7 -27 11 -30 7z"/>
<path d="M6047 1843 c-4 -3 -7 -13 -7 -22 1 -13 3 -13 11 2 11 19 8 33 -4 20z"/>
<path d="M4865 1481 c-3 -5 -1 -12 5 -16 5 -3 10 1 10 9 0 18 -6 21 -15 7z"/>
<path d="M4938 1383 c7 -3 16 -2 19 1 4 3 -2 6 -13 5 -11 0 -14 -3 -6 -6z"/>
<path d="M5412 1015 c0 -16 2 -22 5 -12 2 9 2 23 0 30 -3 6 -5 -1 -5 -18z"/>
<path d="M4268 688 c-21 -30 -40 -70 -55 -120 -4 -12 0 -18 11 -18 9 0 19 8
22 18 3 9 13 33 23 52 19 36 36 100 27 100 -3 0 -16 -15 -28 -32z"/>
<path d="M6770 708 c0 -8 11 -41 25 -72 14 -31 25 -71 25 -88 0 -33 13 -82 35
-133 7 -16 16 -41 18 -55 3 -14 17 -68 30 -120 14 -52 31 -128 38 -167 11 -66
14 -73 36 -73 23 0 32 23 13 35 -5 3 -10 16 -10 28 0 21 -58 258 -78 322 -6
17 -18 56 -27 87 -9 32 -21 60 -26 64 -5 3 -9 12 -9 21 0 20 -48 144 -61 158
-6 5 -9 3 -9 -7z"/>
<path d="M4625 581 c-3 -5 -1 -12 5 -16 5 -3 10 1 10 9 0 18 -6 21 -15 7z"/>
<path d="M4010 520 c0 -5 5 -10 10 -10 6 0 10 5 10 10 0 6 -4 10 -10 10 -5 0
-10 -4 -10 -10z"/>
<path d="M4548 523 c-31 -8 -20 -23 17 -23 26 0 33 3 29 15 -6 15 -14 17 -46
8z"/>
</g>
</svg>
